<svg fill="none" height="538" width="403" xmlns="http://www.w3.org/2000/svg">
  <path d="M0 0h403v538H0z" fill="#fff"></path>
  <path d="M219.817 231.925c13.257 69.058 42.54 80.462 38.281 167.554" stroke-width="1.42" stroke-linejoin="round" stroke-linecap="round" stroke="#5282A1"></path>
  <path d="M242.711 224.34c6.016-5.145-16.186-8.646-16.186-8.646-30.614-5.569-53.934-12.941-68.895-31.771-28.325-28.217-49.728-83.963 2.236-146.391 0 0 6.762-11.51-17.942-3.024-27.154 7.956-69.268 30.286-85.88 64.657-20.072 33.999-21.084 121.727 52.763 149.68 43.339 18.67 115.589-.796 133.904-24.505Z" stroke-width=".52" stroke-linejoin="round" stroke-linecap="round" stroke="#5282A1" fill="#DFEFF8"></path>
  <path d="M64.882 103.832c-6.335 10.714-10.701 27.528-10.701 45.933-.16 12.624 1.81 25.884 6.442 38.508 6.283 17.185 20.179 40.151 51.432 51.926 34.661 14.957 90.139 2.652 113.831-13.95a7.482 7.482 0 0 0-1.49-.318c-32.797-6.046-58.087-14.374-74.965-35.219-17.889-18.139-31.839-44.713-31.679-75.741 0-21.429 7.454-45.138 24.172-69.483-28.165 8.698-63.358 30.18-76.988 58.397l-.054-.053Z" stroke-width="1.14" stroke-linejoin="round" stroke-linecap="round" stroke-dasharray="1.76 3.52" stroke="#5282A1"></path>
  <path d="M177.17 365.109c25.503-41.053-17.783-100.405 11.287-145.224 8.2-16.708 30.668-17.928 32.797-9.707" stroke-width="1.42" stroke-linejoin="round" stroke-linecap="round" stroke="#5282A1"></path>
  <path d="M157.79 356.304c-18.209 8.222-69.268 62.747-16.399 60.838 5.005-.159 5.005 3.66-1.863 22.913 0 0-17.676 38.561 18.422 36.545 0 0 13.843-1.167 20.125-8.646 0 0 16.718-16.919 40.943-54.26 0 0 12.565-21.481-2.875-31.294 0 0-14.535-11.509-36.95-11.722 0 0-5.43-21.534-21.35-14.374h-.053Z" stroke-width=".11" stroke-linejoin="round" stroke-linecap="round" stroke="#B3B995" fill="#DFEFF8"></path>
  <path d="M177.968 368.239c-.798 13.949-21.722 41.371-39.505 48.638" stroke-width=".64" stroke-linejoin="round" stroke-linecap="round" stroke="#5282A1"></path>
  <path clip-rule="evenodd" d="M145.438 422.605s13.736 3.713 18.634 9.653l2.396-1.75s-.905-5.728-12.938-9.07c-5.271-1.485-5.217-1.326-5.217-1.326l-2.875 2.44v.053Z" fill-rule="evenodd" fill="#5282A1"></path>
  <path clip-rule="evenodd" d="M147.088 421.226s-2.769 15.647-.32 23.497l-2.502 2.281s-4.1-3.448-1.544-17.61c1.171-6.259 1.171-6.206 1.171-6.206l3.195-1.962Z" fill-rule="evenodd" fill="#5282A1"></path>
  <path clip-rule="evenodd" d="M145.224 419.051c-2.023-6.046 14.961-14.002 18.316-8.964 8.412 12.783-16.878 13.048-18.316 8.964Z" fill-rule="evenodd" fill="#5282A1"></path>
  <path clip-rule="evenodd" d="M147.407 418.256c-1.437-2.758 8.839-6.365 12.193-4.668 3.354 1.963-10.702 7.479-12.193 4.668Z" stroke-width=".06" stroke-linejoin="round" stroke-linecap="round" stroke="#DFEFF8" fill-rule="evenodd" fill="#DFEFF8"></path>
  <path clip-rule="evenodd" d="M144.373 418.415c-4.473-3.342-15.068 10.237-11.82 14.639 8.306 10.82 14.801-12.305 11.82-14.639Z" fill-rule="evenodd" fill="#5282A1"></path>
  <path clip-rule="evenodd" d="M143.095 421.173c-1.917-2.016-7.401 6.577-6.762 10.025.639 3.5 8.625-8.01 6.762-10.025Z" stroke-width=".06" stroke-linejoin="round" stroke-linecap="round" stroke="#DFEFF8" fill-rule="evenodd" fill="#DFEFF8"></path>
  <path clip-rule="evenodd" d="M145.97 415.869s-1.331-1.644-3.354 2.175c0 0 1.011 4.243 1.916 5.198 0 0 3.142-.319 3.781-2.175l-2.29-5.198h-.053Z" fill-rule="evenodd" fill="#5282A1"></path>
  <path d="M137.665 387.545c-3.088 3.13-5.165 6.418-4.633 10.927 7.561 1.856 32.744-24.452 29.071-29.862" stroke-width=".64" stroke-linejoin="round" stroke-linecap="round" stroke="#5282A1"></path>
  <path d="M279.075 387.864c18.795 6.577 74.167 56.594 21.404 59.193-4.845.212-4.579 4.031 3.78 22.648 0 0 20.924 36.916-15.281 37.977 0 0-13.789-.053-20.764-6.842 0 0-17.943-15.382-45.309-50.495 0 0-14.269-20.367.16-31.4 0 0 13.63-12.836 35.991-14.957 0 0 3.621-21.906 20.019-16.124Z" stroke-width=".11" stroke-linejoin="round" stroke-linecap="round" stroke="#B3B995" fill="#DFEFF8"></path>
  <path d="M283.281 395.713c-8.465 9.442 18.848 24.611 25.982 25.354-.159-2.599-2.129-5.304-4.366-6.63M259.056 403.988c3.621 13.684 29.177 31.134 47.066 37.658" stroke-width=".64" stroke-linejoin="round" stroke-linecap="round" stroke="#5282A1"></path>
  <path clip-rule="evenodd" d="M299.84 447.004s-9.957 10.289-11.181 17.927l-3.035-.265s-2.023-5.463 6.762-14.48c3.78-3.978 3.833-3.819 3.833-3.819l3.621.637Z" fill-rule="evenodd" fill="#5282A1"></path>
  <path clip-rule="evenodd" d="M297.816 446.738s10.063 12.041 11.714 20.05l3.407.636s1.864-4.986-7.4-15.965c-4.047-4.774-4.047-4.668-4.047-4.668l-3.727-.106.053.053Z" fill-rule="evenodd" fill="#5282A1"></path>
  <path clip-rule="evenodd" d="M298.242 443.821c-1.224-6.312-19.859-4.402-20.178 1.591-.959 15.382 21.03 2.705 20.178-1.591Z" fill-rule="evenodd" fill="#5282A1"></path>
  <path clip-rule="evenodd" d="M295.953 444.245c-.053-3.076-10.755-.954-12.671 2.228-1.97 3.289 12.884.955 12.671-2.228Z" stroke-width=".06" stroke-linejoin="round" stroke-linecap="round" stroke="#DFEFF8" fill-rule="evenodd" fill="#DFEFF8"></path>
  <path clip-rule="evenodd" d="M298.721 442.919c2.183-5.304 18.156 1.114 17.411 6.471-1.757 13.685-18.848-3.023-17.411-6.471Z" fill-rule="evenodd" fill="#5282A1"></path>
  <path clip-rule="evenodd" d="M301.277 444.564c.532-2.705 9.53 1.856 10.648 5.198 1.172 3.394-11.393-2.493-10.648-5.198Z" stroke-width=".06" stroke-linejoin="round" stroke-linecap="round" stroke="#DFEFF8" fill-rule="evenodd" fill="#DFEFF8"></path>
  <path clip-rule="evenodd" d="M295.953 441.381s.426-2.015 4.153.372c0 0 1.171 4.084.905 5.463 0 0-3.088 1.326-4.366-.106l-.745-5.782.053.053Z" fill-rule="evenodd" fill="#5282A1"></path>
</svg>
